<svg width="32" height="32" viewBox="0 0 32 32" fill="none" xmlns="http://www.w3.org/2000/svg">
<mask id="mask0_157_616" style="mask-type:alpha" maskUnits="userSpaceOnUse" x="0" y="0" width="32" height="32">
<rect width="32" height="32" fill="#D9D9D9"/>
</mask>
<g mask="url(#mask0_157_616)">
<path d="M5.33332 26.6666C4.59999 26.6666 3.97243 26.4057 3.45066 25.8839C2.92799 25.3613 2.66666 24.7333 2.66666 23.9999V7.99992C2.66666 7.26659 2.92799 6.63903 3.45066 6.11725C3.97243 5.59459 4.59999 5.33325 5.33332 5.33325H26.6667C27.4 5.33325 28.028 5.59459 28.5507 6.11725C29.0724 6.63903 29.3333 7.26659 29.3333 7.99992V23.9999C29.3333 24.7333 29.0724 25.3613 28.5507 25.8839C28.028 26.4057 27.4 26.6666 26.6667 26.6666H5.33332ZM16 17.3333L5.33332 10.6666V23.9999H26.6667V10.6666L16 17.3333ZM16 14.6666L26.6667 7.99992H5.33332L16 14.6666Z" fill="#FCD27E"/>
</g>
</svg>
