<svg width="56" height="56" viewBox="0 0 56 56" fill="none" xmlns="http://www.w3.org/2000/svg">
<rect width="56" height="56" rx="28" fill="#7C509A"/>
<path d="M36.7555 13.3644C31.4194 12.3453 25.878 12.3453 20.5419 13.3644C18.1817 13.8739 15.2058 16.7272 14.6927 18.9691C13.7691 23.351 13.7691 27.8347 14.6927 32.2166C15.3084 34.4585 18.2843 37.3118 20.5419 37.8213C20.6445 37.8213 20.7471 37.9232 20.7471 38.0251V44.4451C20.7471 44.7508 21.1576 44.9546 21.3628 44.6489L24.4414 41.4899C24.4414 41.4899 26.9042 38.9423 27.3147 38.5346C27.3147 38.5346 27.4173 38.4327 27.5199 38.4327C30.5984 38.5346 33.7796 38.2289 36.8581 37.7194C39.2183 37.2099 42.1942 34.3566 42.7073 32.1147C43.6309 27.7328 43.6309 23.2491 42.7073 18.8672C42.0916 16.7272 39.1157 13.8739 36.7555 13.3644ZM36.8581 32.5223C36.345 33.5413 35.7293 34.3566 34.7031 34.8661C34.3953 34.968 34.0874 35.0699 33.7796 35.1718C33.3691 35.0699 33.0613 34.968 32.7534 34.8661C29.4696 33.5413 26.3911 31.7071 23.9283 29.0576C22.5942 27.529 21.4654 25.7967 20.5419 23.9624C20.1314 23.0452 19.7209 22.23 19.4131 21.3129C19.1052 20.4976 19.6183 19.6824 20.1314 19.071C20.6445 18.4596 21.2602 18.052 21.9785 17.7462C22.4916 17.4405 23.0047 17.6443 23.4152 18.052C24.2361 19.071 25.0571 20.09 25.6728 21.211C26.0832 21.9243 25.9806 22.7395 25.2623 23.2491C25.0571 23.351 24.9544 23.4529 24.7492 23.6567C24.6466 23.7586 24.4414 23.8605 24.3387 24.0643C24.1335 24.37 24.1335 24.6757 24.2361 24.9814C25.0571 27.3252 26.5963 29.1595 28.9565 30.1785C29.367 30.3823 29.6749 30.4842 30.188 30.4842C30.9063 30.3823 31.2141 29.5671 31.7272 29.1595C32.2403 28.7519 32.856 28.7519 33.4717 29.0576C33.9848 29.3633 34.4979 29.7709 35.1136 30.1785C35.6267 30.5861 36.1398 30.8918 36.6529 31.2995C36.9607 31.5033 37.0634 32.0128 36.8581 32.5223ZM32.5482 24.8795C32.3429 24.8795 32.4455 24.8795 32.5482 24.8795C32.1377 24.8795 32.0351 24.6757 31.9325 24.37C31.9325 24.1662 31.9325 23.8605 31.8298 23.6567C31.7272 23.2491 31.522 22.8414 31.1115 22.5357C30.9063 22.4338 30.701 22.3319 30.4958 22.23C30.188 22.1281 29.9827 22.1281 29.6749 22.1281C29.367 22.0262 29.2644 21.8224 29.2644 21.5167C29.2644 21.3129 29.5723 21.1091 29.7775 21.1091C31.4194 21.211 32.6508 22.1281 32.856 24.0643C32.856 24.1662 32.856 24.37 32.856 24.4719C32.856 24.6757 32.7534 24.8795 32.5482 24.8795ZM31.522 20.3957C31.0089 20.1919 30.4958 19.9881 29.8801 19.8862C29.6749 19.8862 29.367 19.7843 29.1618 19.7843C28.8539 19.7843 28.6487 19.5805 28.7513 19.2748C28.7513 18.9691 28.9565 18.7653 29.2644 18.8672C30.2906 18.9691 31.2141 19.1729 32.1377 19.5805C33.9848 20.4976 35.011 22.0262 35.3188 24.0643C35.3188 24.1662 35.3188 24.2681 35.3188 24.37C35.3188 24.5738 35.3188 24.7776 35.3188 25.0833C35.3188 25.1852 35.3188 25.2871 35.3188 25.389C35.2162 25.7967 34.4979 25.8986 34.3953 25.389C34.3953 25.2871 34.2927 25.0833 34.2927 24.9814C34.2927 24.0643 34.0874 23.1472 33.677 22.3319C33.0613 21.4148 32.3429 20.8034 31.522 20.3957ZM37.0633 26.51C36.7555 26.51 36.5503 26.2043 36.5503 25.8986C36.5503 25.2871 36.4476 24.6757 36.345 24.0643C35.9346 20.8034 33.2665 18.1539 30.0853 17.6443C29.5723 17.5424 29.0592 17.5424 28.6487 17.4405C28.3408 17.4405 27.9304 17.4405 27.8277 17.0329C27.7251 16.7272 28.033 16.4215 28.3408 16.4215C28.4435 16.4215 28.5461 16.4215 28.5461 16.4215C32.7534 16.5234 28.7513 16.4215 28.5461 16.4215C32.856 16.5234 36.4476 19.3767 37.166 23.6567C37.2686 24.37 37.3712 25.0833 37.3712 25.8986C37.5764 26.2043 37.3712 26.51 37.0633 26.51Z" fill="white"/>
</svg>
