<svg width="56" height="56" viewBox="0 0 56 56" fill="none" xmlns="http://www.w3.org/2000/svg">
<path d="M28 56C43.464 56 56 43.464 56 28C56 12.536 43.464 0 28 0C12.536 0 0 12.536 0 28C0 43.464 12.536 56 28 56Z" fill="url(#paint0_radial_110_1534)"/>
<path d="M42.3767 21.3765C42.304 19.787 42.0516 18.7014 41.6824 17.7517C41.3076 16.7552 40.7197 15.8527 39.96 15.1066C39.2142 14.3469 38.3114 13.7588 37.3149 13.3837C36.365 13.0148 35.2796 12.7626 33.6901 12.6903C32.0975 12.6174 31.5887 12.6001 27.5332 12.6001C23.4776 12.6001 22.9689 12.6174 21.3763 12.6899C19.7867 12.7626 18.7014 13.015 17.7514 13.3842C16.7549 13.759 15.8524 14.3469 15.1064 15.1066C14.3466 15.8525 13.7585 16.755 13.3834 17.7515C13.0146 18.7014 12.7624 19.787 12.6901 21.3763C12.6172 22.9691 12.5999 23.4777 12.5999 27.5332C12.5999 31.589 12.6172 32.0977 12.6901 33.6903C12.7626 35.2797 13.015 36.3653 13.3842 37.3152C13.7591 38.3115 14.3468 39.2142 15.1066 39.96C15.8524 40.7198 16.7552 41.3076 17.7516 41.6825C18.7014 42.0518 19.7869 42.3041 21.3765 42.3768C22.9693 42.4494 23.4779 42.4666 27.5334 42.4666C31.5889 42.4666 32.0978 42.4494 33.6903 42.3768C35.2799 42.3041 36.3652 42.0518 37.3151 41.6825C39.3211 40.9067 40.9068 39.3211 41.6824 37.3152C42.0518 36.3653 42.304 35.2797 42.3767 33.6903C42.4492 32.0975 42.4665 31.589 42.4665 27.5334C42.4665 23.4777 42.4492 22.9691 42.3767 21.3765ZM39.6886 33.5679C39.6223 35.0241 39.379 35.8147 39.1746 36.3409C38.6721 37.6433 37.6428 38.6726 36.3404 39.175C35.8142 39.3794 35.0236 39.6228 33.5675 39.6891C31.9932 39.7611 31.5208 39.7762 27.5332 39.7762C23.5454 39.7762 23.0732 39.7611 21.4987 39.6891C20.0429 39.6228 19.2521 39.3794 18.7257 39.175C18.0773 38.9355 17.4905 38.5539 17.0088 38.0578C16.5127 37.5761 16.1311 36.9895 15.8916 36.3409C15.6872 35.8147 15.4438 35.0241 15.3776 33.5679C15.3058 31.9934 15.2904 31.521 15.2904 27.5336C15.2904 23.546 15.3058 23.0739 15.3776 21.4991C15.444 20.043 15.6872 19.2524 15.8916 18.7262C16.1311 18.0775 16.513 17.4908 17.0088 17.0091C17.4905 16.5129 18.0773 16.1313 18.726 15.8921C19.2521 15.6875 20.0429 15.4443 21.4989 15.3778C23.0734 15.3059 23.5458 15.2907 27.5332 15.2907H27.533C31.5204 15.2907 31.9928 15.3059 33.5675 15.378C35.0236 15.4443 35.814 15.6877 36.3404 15.8921C36.9889 16.1315 37.5756 16.5133 38.0573 17.0091C38.5534 17.4908 38.9351 18.0775 39.1743 18.7262C39.3789 19.2524 39.6223 20.043 39.6886 21.4991C39.7604 23.0737 39.7757 23.546 39.7757 27.5334C39.7757 31.521 39.7607 31.9932 39.6886 33.5679Z" fill="#F7F3FB"/>
<path d="M27.533 19.8647C23.298 19.8647 19.8647 23.2983 19.8647 27.5333C19.8647 31.7684 23.298 35.2017 27.533 35.2017C31.7684 35.2017 35.2016 31.7684 35.2016 27.5333C35.2016 23.2983 31.7684 19.8647 27.533 19.8647ZM27.533 32.511C24.7841 32.5108 22.5553 30.2823 22.5555 27.5331C22.5555 24.7841 24.7841 22.5554 27.5333 22.5554C30.2825 22.5557 32.511 24.7841 32.511 27.5331C32.511 30.2823 30.2822 32.511 27.533 32.511Z" fill="#F7F3FB"/>
<path d="M37.297 19.5616C37.297 20.5513 36.4946 21.3536 35.505 21.3536C34.5151 21.3536 33.7129 20.5513 33.7129 19.5616C33.7129 18.5718 34.5151 17.7695 35.505 17.7695C36.4946 17.7695 37.297 18.5718 37.297 19.5616Z" fill="#F7F3FB"/>
<defs>
<radialGradient id="paint0_radial_110_1534" cx="0" cy="0" r="1" gradientUnits="userSpaceOnUse" gradientTransform="translate(14.8751 60.3132) rotate(-90) scale(55.5002)">
<stop stop-color="#FFDD55"/>
<stop offset="0.1" stop-color="#FFDD55"/>
<stop offset="0.5" stop-color="#FF543E"/>
<stop offset="1" stop-color="#C837AB"/>
</radialGradient>
</defs>
</svg>
