<svg width="56" height="56" viewBox="0 0 56 56" fill="none" xmlns="http://www.w3.org/2000/svg">
<path fill-rule="evenodd" clip-rule="evenodd" d="M28 56C43.464 56 56 43.464 56 28C56 12.536 43.464 0 28 0C12.536 0 0 12.536 0 28C0 43.464 12.536 56 28 56Z" fill="#37B145"/>
<path fill-rule="evenodd" clip-rule="evenodd" d="M28.9229 43.5779H28.916C26.1295 43.5769 23.3914 42.8778 20.9595 41.5513L12.1333 43.8666L14.4954 35.2389C13.0383 32.7139 12.2716 29.8497 12.2729 26.9152C12.2765 17.7352 19.7456 10.2666 28.9227 10.2666C33.3767 10.2685 37.5571 12.0024 40.7005 15.1496C43.844 18.2966 45.5742 22.4797 45.5725 26.9284C45.5688 36.1062 38.1027 43.5741 28.9229 43.5779ZM21.3685 38.5375L21.8738 38.8374C23.9985 40.0982 26.434 40.7654 28.9173 40.7663H28.9229C36.5503 40.7663 42.7582 34.5583 42.7612 26.9277C42.7627 23.23 41.3246 19.7532 38.7119 17.1374C36.0992 14.5216 32.6246 13.0804 28.9283 13.0791C21.295 13.0791 15.087 19.2866 15.084 26.9165C15.0829 29.5314 15.8145 32.0779 17.1998 34.2812L17.5288 34.8048L16.1308 39.9114L21.3685 38.5375ZM37.3108 30.8873C37.2068 30.7138 36.9295 30.6097 36.5135 30.4014C36.0975 30.1932 34.0522 29.1869 33.6707 29.0479C33.2895 28.9091 33.012 28.8398 32.7347 29.2561C32.4574 29.6725 31.6602 30.6097 31.4175 30.8873C31.1748 31.1649 30.9321 31.1998 30.5162 30.9915C30.1002 30.7832 28.7597 30.344 27.1707 28.9266C25.9339 27.8234 25.099 26.4612 24.8563 26.0447C24.6136 25.6282 24.8304 25.4031 25.0387 25.1956C25.2259 25.0092 25.4548 24.7096 25.6628 24.4668C25.8708 24.2239 25.9401 24.0503 26.0788 23.7728C26.2174 23.495 26.1481 23.2522 26.0441 23.0439C25.9401 22.8357 25.1081 20.7879 24.7614 19.9549C24.4237 19.1437 24.0807 19.2536 23.8254 19.2408C23.583 19.2286 23.3054 19.2261 23.0281 19.2261C22.7507 19.2261 22.3 19.3302 21.9187 19.7467C21.5374 20.1632 20.4626 21.1697 20.4626 23.2173C20.4626 25.265 21.9533 27.2432 22.1614 27.5208C22.3694 27.7986 25.0949 32.0005 29.2682 33.8026C30.2607 34.2312 31.0356 34.4872 31.6398 34.6789C32.6364 34.9956 33.5434 34.9509 34.2601 34.8437C35.0594 34.7244 36.7214 33.8374 37.0683 32.8657C37.4147 31.8938 37.4148 31.0608 37.3108 30.8873Z" fill="#FDFDFD"/>
</svg>
