<svg width="56" height="56" viewBox="0 0 56 56" fill="none" xmlns="http://www.w3.org/2000/svg">
<path fill-rule="evenodd" clip-rule="evenodd" d="M28 56C43.464 56 56 43.464 56 28C56 12.536 43.464 0 28 0C12.536 0 0 12.536 0 28C0 43.464 12.536 56 28 56Z" fill="url(#paint0_linear_110_1533)"/>
<path fill-rule="evenodd" clip-rule="evenodd" d="M22.8666 40.8332C21.9595 40.8332 22.1137 40.4907 21.8008 39.627L19.1333 30.8479L39.6666 18.6665" fill="#84A9C0"/>
<path fill-rule="evenodd" clip-rule="evenodd" d="M22.8667 40.8332C23.5667 40.8332 23.876 40.5131 24.2667 40.1332L28 36.503L23.3432 33.6948" fill="#84A9C0"/>
<path fill-rule="evenodd" clip-rule="evenodd" d="M23.3426 33.6954L34.6266 42.0322C35.9142 42.7426 36.8436 42.3748 37.1643 40.8367L41.7575 19.192C42.2278 17.3066 41.0388 16.4515 39.807 17.0107L12.836 27.4106C10.9949 28.1491 11.0057 29.1762 12.5004 29.6338L19.4218 31.7941L35.4455 21.6849C36.2019 21.2262 36.8962 21.4728 36.3263 21.9786" fill="url(#paint1_linear_110_1533)"/>
<defs>
<linearGradient id="paint0_linear_110_1533" x1="21.0028" y1="2.3352" x2="7.0028" y2="35" gradientUnits="userSpaceOnUse">
<stop stop-color="#37AEE2"/>
<stop offset="1" stop-color="#1E96C8"/>
</linearGradient>
<linearGradient id="paint1_linear_110_1533" x1="24.4948" y1="29.7197" x2="27.4865" y2="39.3971" gradientUnits="userSpaceOnUse">
<stop stop-color="#EFF7FC"/>
<stop offset="1" stop-color="white"/>
</linearGradient>
</defs>
</svg>
