<svg width="32" height="32" viewBox="0 0 32 32" fill="none" xmlns="http://www.w3.org/2000/svg">
<mask id="mask0_386_79" style="mask-type:alpha" maskUnits="userSpaceOnUse" x="0" y="0" width="32" height="32">
<rect width="32" height="32" fill="#D9D9D9"/>
</mask>
<g mask="url(#mask0_386_79)">
<path d="M14.9664 22.6665H17.1664V17.2001H22.6664V14.9665H17.1664V9.3337H14.9664V14.9665H9.33358V17.2001H14.9664V22.6665ZM16 29.3337C14.1333 29.3337 12.3888 28.9892 10.7664 28.3001C9.14452 27.611 7.73358 26.6665 6.53358 25.4665C5.33358 24.2665 4.38905 22.8556 3.69998 21.2337C3.01092 19.6113 2.66638 17.8668 2.66638 16.0001C2.66638 14.1334 3.01092 12.3889 3.69998 10.7665C4.38905 9.14464 5.33358 7.7337 6.53358 6.5337C7.73358 5.3337 9.14452 4.38917 10.7664 3.7001C12.3888 3.01104 14.1333 2.6665 16 2.6665C17.8666 2.6665 19.6112 3.01104 21.2336 3.7001C22.8554 4.38917 24.2664 5.3337 25.4664 6.5337C26.6664 7.7337 27.6109 9.14464 28.3 10.7665C28.989 12.3889 29.3336 14.1334 29.3336 16.0001C29.3336 17.8668 28.989 19.6113 28.3 21.2337C27.6109 22.8556 26.6664 24.2665 25.4664 25.4665C24.2664 26.6665 22.8554 27.611 21.2336 28.3001C19.6112 28.9892 17.8666 29.3337 16 29.3337ZM16 27.1001C19.0666 27.1001 21.6832 26.0166 23.8496 23.8497C26.0165 21.6833 27.1 19.0668 27.1 16.0001C27.1 12.9334 26.0165 10.3169 23.8496 8.1505C21.6832 5.98357 19.0666 4.9001 16 4.9001C12.9333 4.9001 10.3168 5.98357 8.15038 8.1505C5.98345 10.3169 4.89998 12.9334 4.89998 16.0001C4.89998 19.0668 5.98345 21.6833 8.15038 23.8497C10.3168 26.0166 12.9333 27.1001 16 27.1001Z" fill="#FFB487"/>
</g>
</svg>
