<svg width="56" height="56" viewBox="0 0 56 56" fill="none" xmlns="http://www.w3.org/2000/svg">
<rect width="56" height="56" rx="28" fill="#358AF2"/>
<path d="M29.3755 37.8C18.8523 37.8 12.8501 30.4426 12.6 18.2H17.8712C18.0443 27.1857 21.9304 30.9919 25.0085 31.7767V18.2H29.9719V25.9497C33.0115 25.6162 36.205 22.0846 37.2823 18.2H42.2457C41.8397 20.2147 41.0305 22.1223 39.8686 23.8035C38.7067 25.4846 37.2172 26.9032 35.4932 27.9705C37.4176 28.9457 39.1174 30.326 40.4803 32.0204C41.8432 33.7147 42.8383 35.6846 43.4 37.8H37.9364C37.4322 35.9626 36.4075 34.3179 34.9907 33.0719C33.5739 31.8259 31.828 31.0341 29.9719 30.7957V37.8H29.3755Z" fill="white"/>
</svg>
