<svg width="272" height="48" viewBox="0 0 272 48" fill="none" xmlns="http://www.w3.org/2000/svg">
<rect width="48" height="48" rx="24" fill="#FCD27E"/>
<path d="M10 34H38V19.9149L30.4684 25.7872L23.8228 18L17.8418 25.8723L10 19.8723V34Z" fill="black"/>
<path d="M39.9971 16.0014C39.9971 17.0916 39.0887 18 37.9986 18C36.9084 18 36 17.0916 36 16.0014C36 14.9113 36.9084 14.0029 37.9986 14.0029C39.0887 13.9423 39.9971 14.8507 39.9971 16.0014Z" fill="black"/>
<path d="M12 16.0014C12 17.0916 11.1045 18 10.0299 18C8.89552 18 8 17.0916 8 16.0014C8 14.9113 8.89552 14.0029 9.97015 14.0029C11.1045 13.9423 12 14.8507 12 16.0014Z" fill="black"/>
<path d="M27 13C27 14.6364 25.6364 16 24 16C22.3636 16 21 14.6364 21 13C21 11.3636 22.3636 10 24 10C25.6364 10 27 11.3636 27 13Z" fill="black"/>
<path d="M84.9192 27.5069V33.7742H64V9H84.4694V15.2673H72.3227V18.1429H82.9698V24.1889H72.3227V27.4332H84.9192V27.5069Z" fill="#FCD27E"/>
<path d="M104.564 16.3733C106.363 17.9217 107.263 20.2074 107.263 23.3779V33.7742H99.7652V31.1936C98.8654 33.1106 96.991 34.0691 94.2167 34.0691C92.6422 34.0691 91.3675 33.7742 90.2428 33.2581C89.1181 32.7419 88.2934 32.0046 87.7685 31.1198C87.1687 30.235 86.9437 29.2028 86.9437 28.023C86.9437 26.106 87.6935 24.6313 89.1931 23.6728C90.6927 22.7143 92.9421 22.1982 95.9412 22.1982H99.2403C98.9404 20.7235 97.7408 19.9124 95.5664 19.9124C94.6666 19.9124 93.7668 20.0599 92.8671 20.3548C91.9673 20.6498 91.1426 21.0184 90.5427 21.4608L87.9185 16.1521C89.0431 15.4885 90.3928 14.8986 91.9673 14.53C93.5419 14.1613 95.1165 13.9401 96.766 13.9401C100.14 14.0876 102.764 14.8249 104.564 16.3733ZM98.1906 28.8341C98.6405 28.5392 99.0154 28.0968 99.1654 27.4332V26.106H97.1409C95.4914 26.106 94.6666 26.6221 94.6666 27.7281C94.6666 28.1705 94.8166 28.5392 95.1915 28.8341C95.5664 29.129 96.0162 29.2765 96.6161 29.2765C97.2159 29.3502 97.7408 29.129 98.1906 28.8341Z" fill="#FCD27E"/>
<path d="M113.411 33.6267C111.762 33.2581 110.487 32.8157 109.438 32.2258L111.687 26.917C112.587 27.4332 113.711 27.8756 114.911 28.1705C116.186 28.4654 117.385 28.6129 118.51 28.6129C119.41 28.6129 120.085 28.5392 120.459 28.3917C120.834 28.2442 120.984 28.023 120.984 27.7281C120.984 27.4332 120.759 27.212 120.31 27.0645C119.86 26.9171 119.11 26.8433 118.06 26.6959C116.486 26.4747 115.061 26.2535 113.936 25.9585C112.812 25.6636 111.837 25.0737 110.937 24.2627C110.112 23.4516 109.737 22.2719 109.737 20.6498C109.737 19.3963 110.112 18.2903 110.862 17.2581C111.612 16.2995 112.812 15.4885 114.311 14.8986C115.811 14.3088 117.685 14.0138 119.785 14.0138C121.284 14.0138 122.709 14.1613 124.133 14.4562C125.558 14.7512 126.758 15.1198 127.807 15.6359L125.558 20.9447C123.834 19.9862 121.959 19.5438 119.86 19.5438C118.06 19.5438 117.16 19.8387 117.16 20.4286C117.16 20.7235 117.385 20.9447 117.91 21.0922C118.36 21.2396 119.11 21.3134 120.16 21.4608C121.734 21.682 123.159 21.9032 124.208 22.1982C125.333 22.4931 126.308 23.0829 127.133 23.9677C127.957 24.8525 128.407 26.0323 128.407 27.5806C128.407 28.7604 128.032 29.8664 127.283 30.8986C126.533 31.8571 125.333 32.6682 123.834 33.2581C122.334 33.8479 120.459 34.1429 118.285 34.1429C116.636 34.1429 114.986 33.9217 113.411 33.6267Z" fill="#FCD27E"/>
<path d="M152.776 14.3825L144.678 34.1429C143.628 36.6498 142.353 38.4194 140.854 39.4516C139.354 40.4839 137.405 41 135.23 41C134.106 41 132.981 40.8525 131.931 40.5576C130.807 40.2627 129.907 39.8203 129.307 39.3041L132.006 33.8479C132.381 34.1429 132.906 34.4378 133.356 34.5853C133.881 34.8065 134.406 34.8802 134.855 34.8802C135.755 34.8802 136.43 34.5853 136.88 34.0691L128.632 14.4562H136.955L141.004 24.8525L145.128 14.4562H152.776V14.3825Z" fill="#FCD27E"/>
<path d="M171.62 15.2673V19.5438H182.117V25.8111H171.62V33.7742H163.147V9H183.617V15.2673H171.62Z" fill="#FCD27E"/>
<path d="M189.69 32.8157C187.965 31.9309 186.616 30.7511 185.641 29.2765C184.666 27.7281 184.141 26.0323 184.141 24.1152C184.141 22.1982 184.666 20.4286 185.641 18.9539C186.616 17.4055 187.965 16.2258 189.69 15.4147C191.414 14.5299 193.364 14.1613 195.538 14.1613C197.713 14.1613 199.737 14.6037 201.462 15.4147C203.186 16.2995 204.536 17.4793 205.511 18.9539C206.485 20.5023 206.935 22.1982 206.935 24.1152C206.935 26.0323 206.485 27.8018 205.511 29.2765C204.536 30.8249 203.186 32.0046 201.462 32.8157C199.737 33.7005 197.713 34.1429 195.538 34.1429C193.364 34.1429 191.414 33.7005 189.69 32.8157ZM197.863 26.917C198.463 26.2535 198.762 25.2949 198.762 24.1152C198.762 22.9355 198.463 21.977 197.863 21.3134C197.263 20.6498 196.513 20.3548 195.538 20.3548C194.564 20.3548 193.814 20.6498 193.214 21.3134C192.614 21.977 192.314 22.9355 192.314 24.1152C192.314 25.2949 192.614 26.2535 193.214 26.917C193.814 27.5806 194.564 27.9493 195.538 27.9493C196.513 27.9493 197.263 27.5806 197.863 26.917Z" fill="#FCD27E"/>
<path d="M223.506 14.0876V21.1659C222.831 21.0922 222.231 21.0184 221.706 21.0184C218.932 21.0184 217.507 22.4194 217.507 25.2212V33.8479H209.409V14.3825H217.132V16.447C218.557 14.8986 220.656 14.0876 223.506 14.0876Z" fill="#FCD27E"/>
<path d="M246.299 25.9585H232.653C232.953 26.6958 233.403 27.2857 234.078 27.6544C234.753 28.023 235.577 28.2442 236.627 28.2442C237.527 28.2442 238.202 28.1705 238.801 27.9493C239.401 27.7281 240.001 27.3594 240.751 26.8433L245.025 31.0461C243.075 33.1106 240.226 34.1429 236.402 34.1429C234.003 34.1429 231.903 33.7005 230.104 32.8157C228.304 31.9309 226.88 30.7511 225.905 29.2028C224.93 27.6544 224.405 25.9585 224.405 24.0415C224.405 22.1244 224.855 20.3548 225.83 18.8802C226.805 17.3318 228.154 16.1521 229.804 15.341C231.528 14.4562 233.403 14.0876 235.502 14.0876C237.527 14.0876 239.326 14.4562 240.976 15.2673C242.625 16.0783 243.9 17.1843 244.875 18.7327C245.849 20.2074 246.299 22.0507 246.299 24.1152C246.449 24.1889 246.374 24.8525 246.299 25.9585ZM233.553 20.2074C233.028 20.6498 232.653 21.3134 232.503 22.1244H238.801C238.651 21.3134 238.277 20.7235 237.752 20.2074C237.227 19.765 236.477 19.5438 235.652 19.5438C234.828 19.5438 234.153 19.765 233.553 20.2074Z" fill="#FCD27E"/>
<path d="M260.17 33.7742L257.471 29.6452L254.472 33.7742H245.699L253.122 24.1889L245.924 14.4562H255.072L257.846 18.5853L260.77 14.4562H269.318L262.12 23.894L269.543 33.8479H260.17V33.7742Z" fill="#FCD27E"/>
</svg>
