<svg width="264" height="67" viewBox="0 0 264 67" fill="none" xmlns="http://www.w3.org/2000/svg">
<path fill-rule="evenodd" clip-rule="evenodd" d="M34.9924 21.6597C35.5817 19.1912 36.4531 16.7556 37.6744 13.9309C37.7603 13.9524 37.8515 13.9632 37.9428 13.9632C38.5277 13.9632 39 13.489 39 12.9016C39 12.3141 38.5277 11.8399 37.9428 11.8399C37.3578 11.8399 36.8855 12.3141 36.8855 12.9016C36.8855 13.3219 37.1324 13.6884 37.4866 13.8608C31.4651 23.2918 30.8962 19.5086 31.2719 9.77587C31.8193 9.73814 32.254 9.28007 32.254 8.7196C32.254 8.13219 31.7818 7.65794 31.1968 7.65794C30.6118 7.65794 30.1395 8.13219 30.1395 8.7196C30.1395 9.2639 30.5528 9.71659 31.0787 9.77048C26.3922 27.4612 25.0084 12.7263 24.2824 4.99573C24.2319 4.45802 24.1846 3.9542 24.1395 3.49754C25.0358 3.42748 25.7442 2.673 25.7442 1.75146C25.7442 0.781423 24.9606 0 24 0C23.034 0 22.2558 0.786812 22.2558 1.75146C22.2558 2.62989 22.8998 3.35742 23.7424 3.48137C23.6931 4.06002 23.6426 4.7153 23.5882 5.41987C22.9853 13.2327 21.9148 27.1067 16.9428 9.77048C17.458 9.70042 17.8551 9.25851 17.8551 8.7196C17.8551 8.13219 17.3828 7.65794 16.7979 7.65794C16.2129 7.65794 15.7406 8.13219 15.7406 8.7196C15.7406 9.28546 16.1807 9.74353 16.7335 9.77587C17.2648 19.8643 17.0877 23.3349 10.5725 13.8231C10.8945 13.6399 11.1091 13.295 11.1091 12.9016C11.1091 12.3141 10.6369 11.8399 10.0519 11.8399C9.47227 11.8453 9 12.3195 9 12.9069C9 13.489 9.47227 13.9686 10.0572 13.9686C10.1592 13.9686 10.2558 13.9524 10.347 13.9255C11.5734 16.7487 12.4231 19.1937 12.9983 21.6645C16.2939 19.9617 20.0347 19 24 19C27.9616 19 31.699 19.9599 34.9924 21.6597Z" fill="#FCD27E"/>
<path fill-rule="evenodd" clip-rule="evenodd" d="M1 43C1 55.7025 11.2975 66 24 66C36.7025 66 47 55.7025 47 43C47 30.2975 36.7025 20 24 20C11.2975 20 1 30.2975 1 43ZM24 19C10.7452 19 0 29.7452 0 43C0 56.2548 10.7452 67 24 67C37.2548 67 48 56.2548 48 43C48 29.7452 37.2548 19 24 19Z" fill="#FCD27E"/>
<path fill-rule="evenodd" clip-rule="evenodd" d="M22.156 36.7002H40.084V41.8602H28.34V46.7802H38.708V51.9402H28.34V60.1002H22.156V36.7002ZM23.156 37.7002V59.1002H27.34V50.9402H37.708V47.7802H27.34V40.8602H39.084V37.7002H23.156Z" fill="#FCD27E"/>
<path d="M29 47.8401V52.0001H11.656V29.6001H28.584V33.7601H16.808V38.6241H27.208V42.6561H16.808V47.8401H29Z" fill="#FCD27E"/>
<path fill-rule="evenodd" clip-rule="evenodd" d="M30 46.8401V53.0001H10.656V28.6001H29.584V34.7601H17.808V37.6241H28.208V43.6561H17.808V46.8401H30ZM16.808 42.6561H27.208V38.6241H16.808V33.7601H28.584V29.6001H11.656V52.0001H29V47.8401H16.808V42.6561Z" fill="#FCD27E"/>
<path d="M81.616 52.216V55H65.36V32.6H81.168V35.384H68.56V42.264H79.792V44.984H68.56V52.216H81.616Z" fill="#FCD27E"/>
<path d="M101.069 49.4H89.1655L86.7015 55H83.4055L93.5495 32.6H96.7175L106.893 55H103.533L101.069 49.4ZM99.9495 46.84L95.1175 35.864L90.2855 46.84H99.9495Z" fill="#FCD27E"/>
<path d="M116.763 55.256C115.078 55.256 113.446 55 111.867 54.488C110.31 53.9547 109.083 53.272 108.187 52.44L109.371 49.944C110.224 50.712 111.312 51.3413 112.635 51.832C113.979 52.3013 115.355 52.536 116.763 52.536C118.619 52.536 120.006 52.2267 120.923 51.608C121.84 50.968 122.299 50.1253 122.299 49.08C122.299 48.312 122.043 47.6933 121.531 47.224C121.04 46.7333 120.422 46.36 119.675 46.104C118.95 45.848 117.915 45.56 116.571 45.24C114.886 44.8347 113.52 44.4293 112.475 44.024C111.451 43.6187 110.566 43 109.819 42.168C109.094 41.3147 108.731 40.1733 108.731 38.744C108.731 37.5493 109.04 36.472 109.659 35.512C110.299 34.552 111.259 33.784 112.539 33.208C113.819 32.632 115.408 32.344 117.307 32.344C118.63 32.344 119.931 32.5147 121.211 32.856C122.491 33.1973 123.59 33.688 124.507 34.328L123.451 36.888C122.512 36.2907 121.51 35.8427 120.443 35.544C119.376 35.224 118.331 35.064 117.307 35.064C115.494 35.064 114.128 35.3947 113.211 36.056C112.315 36.7173 111.867 37.5707 111.867 38.616C111.867 39.384 112.123 40.0133 112.635 40.504C113.147 40.9733 113.776 41.3467 114.523 41.624C115.291 41.88 116.326 42.1573 117.627 42.456C119.312 42.8613 120.667 43.2667 121.691 43.672C122.715 44.0773 123.59 44.696 124.315 45.528C125.062 46.36 125.435 47.48 125.435 48.888C125.435 50.0613 125.115 51.1387 124.475 52.12C123.835 53.08 122.864 53.848 121.563 54.424C120.262 54.9787 118.662 55.256 116.763 55.256Z" fill="#FCD27E"/>
<path d="M138.217 47.256V55H135.049V47.192L126.153 32.6H129.577L136.745 44.408L143.945 32.6H147.113L138.217 47.256Z" fill="#FCD27E"/>
<path d="M157.56 35.384V43.192H168.792V45.944H157.56V55H154.36V32.6H170.168V35.384H157.56Z" fill="#FCD27E"/>
<path d="M184.534 55.256C182.273 55.256 180.236 54.7653 178.422 53.784C176.609 52.7813 175.18 51.4053 174.134 49.656C173.11 47.9067 172.598 45.9547 172.598 43.8C172.598 41.6453 173.11 39.6933 174.134 37.944C175.18 36.1947 176.609 34.8293 178.422 33.848C180.236 32.8453 182.273 32.344 184.534 32.344C186.774 32.344 188.801 32.8453 190.614 33.848C192.428 34.8293 193.846 36.1947 194.87 37.944C195.894 39.672 196.406 41.624 196.406 43.8C196.406 45.976 195.894 47.9387 194.87 49.688C193.846 51.416 192.428 52.7813 190.614 53.784C188.801 54.7653 186.774 55.256 184.534 55.256ZM184.534 52.408C186.177 52.408 187.649 52.0347 188.95 51.288C190.273 50.5413 191.308 49.5173 192.054 48.216C192.822 46.8933 193.206 45.4213 193.206 43.8C193.206 42.1787 192.822 40.7173 192.054 39.416C191.308 38.0933 190.273 37.0587 188.95 36.312C187.649 35.5653 186.177 35.192 184.534 35.192C182.892 35.192 181.398 35.5653 180.054 36.312C178.732 37.0587 177.686 38.0933 176.918 39.416C176.172 40.7173 175.798 42.1787 175.798 43.8C175.798 45.4213 176.172 46.8933 176.918 48.216C177.686 49.5173 178.732 50.5413 180.054 51.288C181.398 52.0347 182.892 52.408 184.534 52.408Z" fill="#FCD27E"/>
<path d="M216.273 55L211.441 48.12C210.844 48.1627 210.375 48.184 210.033 48.184H204.497V55H201.297V32.6H210.033C212.935 32.6 215.217 33.2933 216.881 34.68C218.545 36.0667 219.377 37.976 219.377 40.408C219.377 42.136 218.951 43.608 218.097 44.824C217.244 46.04 216.028 46.9253 214.449 47.48L219.761 55H216.273ZM209.937 45.464C211.964 45.464 213.511 45.0267 214.577 44.152C215.644 43.2773 216.177 42.0293 216.177 40.408C216.177 38.7867 215.644 37.5493 214.577 36.696C213.511 35.8213 211.964 35.384 209.937 35.384H204.497V45.464H209.937Z" fill="#FCD27E"/>
<path d="M240.803 52.216V55H224.547V32.6H240.355V35.384H227.747V42.264H238.979V44.984H227.747V52.216H240.803Z" fill="#FCD27E"/>
<path d="M259.815 55L253.095 45.752L246.471 55H242.791L251.207 43.512L243.303 32.6H246.951L253.223 41.208L259.431 32.6H262.919L255.015 43.416L263.495 55H259.815Z" fill="#FCD27E"/>
</svg>
