<svg width="260" height="260" viewBox="0 0 260 260" fill="none" xmlns="http://www.w3.org/2000/svg">
<path d="M0 130C0 201.797 58.203 260 130 260C201.797 260 260 201.797 260 130C260 58.203 201.797 0 130 0C58.203 0 0 58.203 0 130Z" fill="#262626"/>
<path fill-rule="evenodd" clip-rule="evenodd" d="M120.012 95.8755H217.122V123.825H153.508V150.475H209.668V178.425H153.508V222.625H120.012V95.8755ZM125.428 101.292V217.209H148.092V173.009H204.252V155.892H148.092V118.409H211.705V101.292H125.428Z" fill="#FCD27E"/>
<path d="M157.083 156.217V178.75H63.1367V57.4167H154.83V79.9501H91.0434V106.297H147.377V128.137H91.0434V156.217H157.083Z" fill="#FCD27E"/>
<path fill-rule="evenodd" clip-rule="evenodd" d="M162.5 150.8V184.167H57.7202V52H160.247V85.3667H96.4602V100.88H152.794V133.553H96.4602V150.8H162.5ZM91.0435 128.137H147.377V106.297H91.0435V79.95H154.83V57.4167H63.1369V178.75H157.084V156.217H91.0435V128.137Z" fill="#FCD27E"/>
</svg>
